<svg xmlns="http://www.w3.org/2000/svg" xmlns:xlink="http://www.w3.org/1999/xlink" xmlns:fi="http://pattern.flaticon.com/" x="0" y="0" width="2160" height="1080" viewBox="0 0 1890 945"><rect x="0px" y="0px" width="100%" height="100%" opacity="1" fill="#ffffff"/><defs><g transform="matrix(0.11741682887077332 0 0 0.11741682887077332 295 -7)" id="L1_10"><path d="M492.168,309.579l-17.626-10.177c2.96-14.723,4.458-29.466,4.458-43.902c0-14.646-1.474-29.403-4.384-43.946l17.552-10.134   c5.436-3.138,9.325-8.206,10.949-14.269s0.791-12.396-2.348-17.832l-48-83.139c-3.139-5.436-8.206-9.325-14.269-10.949   c-6.064-1.624-12.396-0.791-17.833,2.348l-17.566,10.142C380.912,68.2,354.798,53.092,327,43.692V23.5   C327,10.542,316.458,0,303.5,0h-96C194.542,0,184,10.542,184,23.5v20.193c-27.65,9.362-53.728,24.49-75.999,44.088L90.332,77.579   c-5.437-3.139-11.77-3.973-17.833-2.348c-6.063,1.625-11.13,5.513-14.269,10.949l-48,83.139   c-3.139,5.436-3.972,11.769-2.348,17.832s5.513,11.131,10.949,14.269l17.626,10.177C33.499,226.32,32,241.063,32,255.5   c0,14.644,1.474,29.401,4.384,43.945l-17.552,10.134c-11.222,6.479-15.08,20.879-8.602,32.102l48,83.139   c6.479,11.221,20.879,15.08,32.102,8.601l17.565-10.142c22.19,19.521,48.303,34.629,76.103,44.03V487.5   c0,12.958,10.542,23.5,23.5,23.5h96c12.958,0,23.5-10.542,23.5-23.5v-20.193c27.651-9.362,53.729-24.49,76-44.087l17.668,10.201   c11.221,6.479,25.623,2.62,32.102-8.601l48-83.139C507.248,330.458,503.39,316.058,492.168,309.579z M487.779,334.181l-48,83.138   c-2.343,4.06-7.552,5.455-11.611,3.111l-22.392-12.928c-2.845-1.643-6.43-1.242-8.842,0.989   c-22.893,21.173-50.437,37.148-79.653,46.199c-3.14,0.973-5.281,3.877-5.281,7.164V487.5c0,4.687-3.813,8.5-8.5,8.5h-96   c-4.687,0-8.5-3.813-8.5-8.5v-25.645c0-3.287-2.141-6.191-5.28-7.164c-29.396-9.107-56.974-25.062-79.755-46.139   c-1.421-1.315-3.25-1.995-5.095-1.995c-1.286,0-2.579,0.33-3.748,1.005L82.832,420.43c-4.06,2.343-9.268,0.948-11.611-3.111   l-48-83.138c-2.343-4.059-0.947-9.268,3.111-11.612l22.272-12.859c2.844-1.642,4.289-4.942,3.566-8.146   C48.739,286.357,47,270.858,47,255.5c0-15.1,1.765-30.584,5.247-46.022c0.722-3.203-0.723-6.504-3.566-8.145L26.332,188.43   c-1.966-1.135-3.372-2.968-3.96-5.161c-0.587-2.193-0.286-4.484,0.849-6.45l48-83.139c1.135-1.966,2.968-3.373,5.162-3.96   c2.192-0.588,4.484-0.286,6.45,0.849l22.392,12.928c2.846,1.644,6.43,1.242,8.842-0.989c22.894-21.173,50.437-37.148,79.653-46.199   c3.14-0.973,5.281-3.877,5.281-7.164V23.5c0-4.687,3.813-8.5,8.5-8.5h96c4.687,0,8.5,3.813,8.5,8.5v25.645   c0,3.287,2.141,6.191,5.28,7.164c29.395,9.106,56.973,25.061,79.755,46.139c2.412,2.232,5.997,2.633,8.843,0.99l22.29-12.869   c1.967-1.135,4.258-1.437,6.45-0.849c2.193,0.588,4.026,1.994,5.162,3.96l48,83.139c1.135,1.966,1.437,4.257,0.849,6.45   c-0.588,2.193-1.994,4.026-3.96,5.161l-22.272,12.859c-2.844,1.642-4.289,4.943-3.566,8.146c3.431,15.206,5.17,30.704,5.17,46.065   c0,15.1-1.765,30.584-5.247,46.021c-0.722,3.203,0.723,6.503,3.566,8.145l22.349,12.903   C488.727,324.913,490.123,330.122,487.779,334.181z"/><path d="M255.5,104C171.962,104,104,171.963,104,255.5S171.962,407,255.5,407S407,339.037,407,255.5S339.038,104,255.5,104z    M255.5,392C180.234,392,119,330.766,119,255.5S180.234,119,255.5,119S392,180.234,392,255.5S330.766,392,255.5,392z"/><path d="M283.5,216h-28c-4.142,0-7.5,3.358-7.5,7.5v64c0,4.142,3.358,7.5,7.5,7.5s7.5-3.358,7.5-7.5V271h20.5   c15.164,0,27.5-12.336,27.5-27.5S298.664,216,283.5,216z M283.5,256H263v-25h20.5c6.893,0,12.5,5.607,12.5,12.5   S290.393,256,283.5,256z"/><path d="M214.522,220.867c-1.098-2.927-3.896-4.867-7.022-4.867h-8c-3.126,0-5.925,1.939-7.022,4.867l-24,64   c-1.455,3.878,0.511,8.201,4.389,9.656c3.878,1.455,8.201-0.511,9.656-4.389L186.697,279h33.605l4.175,11.133   c1.129,3.011,3.987,4.869,7.023,4.869c0.875,0,1.765-0.154,2.632-0.479c3.878-1.454,5.844-5.778,4.389-9.656L214.522,220.867z    M192.322,264l11.178-29.807L214.678,264H192.322z"/><path d="M327.5,216c-4.142,0-7.5,3.358-7.5,7.5v64c0,4.142,3.358,7.5,7.5,7.5s7.5-3.358,7.5-7.5v-64   C335,219.358,331.642,216,327.5,216z"/><path d="M309.152,87.3c5.205,1.659,10.394,3.586,15.421,5.726c0.958,0.408,1.954,0.601,2.934,0.601c2.916,0,5.69-1.712,6.904-4.564   c1.622-3.811-0.152-8.216-3.963-9.838c-5.458-2.323-11.09-4.415-16.742-6.216c-3.945-1.258-8.165,0.922-9.423,4.868   C303.026,81.823,305.206,86.042,309.152,87.3z"/><path d="M100.45,339.904c-1.984-3.636-6.541-4.976-10.176-2.992c-3.636,1.984-4.976,6.54-2.992,10.176   c3.112,5.704,6.557,11.315,10.239,16.677c1.454,2.117,3.801,3.255,6.189,3.255c1.463,0,2.941-0.427,4.239-1.318   c3.415-2.345,4.282-7.014,1.937-10.428C106.493,350.332,103.318,345.161,100.45,339.904z"/><path d="M240.14,431.341c-40.189-3.463-78.337-20.879-107.416-49.041c-2.976-2.882-7.724-2.805-10.605,0.17   c-2.881,2.976-2.806,7.724,0.17,10.605c31.55,30.555,72.947,49.452,116.563,53.21c0.219,0.019,0.436,0.028,0.652,0.028   c3.851,0,7.127-2.949,7.464-6.856C247.323,435.331,244.266,431.697,240.14,431.341z"/><path d="M363.425,97.287c-3.42-2.337-8.087-1.459-10.424,1.96c-2.337,3.42-1.459,8.087,1.96,10.424   c34.844,23.813,60.049,59.248,70.972,99.776c0.902,3.346,3.93,5.55,7.237,5.55c0.646,0,1.303-0.084,1.956-0.26   c4-1.078,6.368-5.194,5.29-9.193C428.564,161.564,401.221,123.118,363.425,97.287z"/></g><g transform="matrix(0.11741682887077332 0 0 0.11741682887077332 299 220)" id="L1_11"><path d="M39.5,103c1.97,0,3.91-0.8,5.3-2.2c1.4-1.39,2.2-3.33,2.2-5.3c0-1.98-0.8-3.91-2.2-5.3c-1.39-1.4-3.33-2.2-5.3-2.2   c-1.97,0-3.91,0.8-5.3,2.2c-1.4,1.39-2.2,3.33-2.2,5.3s0.8,3.91,2.2,5.3C35.59,102.2,37.52,103,39.5,103z"/><path d="M63.5,103c1.97,0,3.91-0.8,5.3-2.2c1.4-1.39,2.2-3.33,2.2-5.3s-0.8-3.91-2.2-5.3c-1.39-1.4-3.33-2.2-5.3-2.2   c-1.97,0-3.91,0.8-5.3,2.2c-1.4,1.39-2.2,3.33-2.2,5.3s0.8,3.91,2.2,5.3C59.59,102.2,61.53,103,63.5,103z"/><path d="M87.5,103c1.97,0,3.91-0.8,5.3-2.2c1.4-1.39,2.2-3.33,2.2-5.3s-0.8-3.91-2.2-5.3c-1.39-1.4-3.33-2.2-5.3-2.2   c-1.97,0-3.91,0.8-5.3,2.2c-1.4,1.39-2.2,3.33-2.2,5.3s0.8,3.91,2.2,5.3C83.59,102.2,85.53,103,87.5,103z"/><path d="M119.5,103h304c4.142,0,7.5-3.358,7.5-7.5s-3.358-7.5-7.5-7.5h-304c-4.142,0-7.5,3.358-7.5,7.5S115.358,103,119.5,103z"/><path d="M455.5,103h16c4.142,0,7.5-3.358,7.5-7.5s-3.358-7.5-7.5-7.5h-16c-4.142,0-7.5,3.358-7.5,7.5S451.358,103,455.5,103z"/><path d="M263.5,224h-16c-17.369,0-31.5,14.131-31.5,31.5v48c0,17.369,14.131,31.5,31.5,31.5h16c17.369,0,31.5-14.131,31.5-31.5v-48   C295,238.131,280.869,224,263.5,224z M280,303.5c0,9.098-7.402,16.5-16.5,16.5h-16c-9.098,0-16.5-7.402-16.5-16.5v-48   c0-9.098,7.402-16.5,16.5-16.5h16c9.098,0,16.5,7.402,16.5,16.5V303.5z"/><path d="M199.5,296H191v-64.5c0-4.142-3.358-7.5-7.5-7.5s-7.5,3.358-7.5,7.5V296h-38.094l20.709-62.128   c1.31-3.929-0.814-8.177-4.744-9.487c-3.929-1.311-8.177,0.814-9.487,4.743l-24,72c-0.762,2.287-0.379,4.801,1.031,6.757   S125.089,311,127.5,311H176v16.5c0,4.142,3.358,7.5,7.5,7.5s7.5-3.358,7.5-7.5V311h8.5c4.142,0,7.5-3.358,7.5-7.5   S203.642,296,199.5,296z"/><path d="M383.5,296H375v-64.5c0-4.142-3.358-7.5-7.5-7.5s-7.5,3.358-7.5,7.5V296h-38.094l20.709-62.128   c1.31-3.929-0.814-8.177-4.744-9.487c-3.929-1.311-8.177,0.814-9.487,4.743l-24,72c-0.762,2.287-0.379,4.801,1.031,6.757   S309.089,311,311.5,311H360v16.5c0,4.142,3.358,7.5,7.5,7.5s7.5-3.358,7.5-7.5V311h8.5c4.142,0,7.5-3.358,7.5-7.5   S387.642,296,383.5,296z"/><path d="M471.5,56h-432C17.72,56,0,73.72,0,95.5v320C0,437.28,17.72,455,39.5,455h432c21.78,0,39.5-17.72,39.5-39.5v-320   C511,73.72,493.28,56,471.5,56z M39.5,71h432c13.509,0,24.5,10.991,24.5,24.5V120H15V95.5C15,81.991,25.991,71,39.5,71z M471.5,440   h-432C25.991,440,15,429.009,15,415.5V135h481v280.5C496,429.009,485.009,440,471.5,440z"/></g><g transform="matrix(0.11741682887077332 0 0 0.11741682887077332 208 103)" id="L1_12"><path d="M498.962,102.751c-0.018-0.182-0.049-0.359-0.08-0.537c-0.011-0.063-0.016-0.128-0.029-0.191   c-0.042-0.21-0.096-0.416-0.156-0.619c-0.009-0.03-0.014-0.061-0.023-0.091c-0.063-0.207-0.138-0.409-0.218-0.608   c-0.011-0.027-0.019-0.055-0.03-0.081c-0.078-0.189-0.168-0.372-0.261-0.552c-0.019-0.037-0.034-0.075-0.054-0.112   c-0.09-0.167-0.189-0.327-0.291-0.486c-0.031-0.048-0.057-0.098-0.088-0.145c-0.101-0.151-0.212-0.295-0.324-0.438   c-0.039-0.05-0.073-0.102-0.113-0.151c-0.156-0.189-0.32-0.372-0.493-0.545L400.804,2.198c-0.173-0.173-0.355-0.338-0.545-0.493   c-0.049-0.04-0.101-0.074-0.151-0.113c-0.143-0.112-0.287-0.223-0.438-0.324c-0.047-0.032-0.097-0.058-0.145-0.088   c-0.159-0.101-0.319-0.201-0.486-0.291c-0.036-0.02-0.075-0.035-0.112-0.054c-0.181-0.093-0.364-0.183-0.552-0.261   c-0.027-0.011-0.054-0.019-0.081-0.03c-0.199-0.08-0.401-0.155-0.608-0.218c-0.03-0.009-0.061-0.015-0.091-0.023   c-0.203-0.059-0.409-0.114-0.619-0.156c-0.063-0.013-0.128-0.018-0.191-0.029c-0.177-0.031-0.355-0.062-0.537-0.08   C396.001,0.013,395.751,0,395.5,0h-224C149.72,0,132,17.72,132,39.5V80H43.5C26.131,80,12,94.131,12,111.5v80   c0,17.369,14.131,31.5,31.5,31.5H132v248.5c0,21.78,17.72,39.5,39.5,39.5h288c21.78,0,39.5-17.72,39.5-39.5v-368   C499,103.249,498.987,102.999,498.962,102.751z M403,25.606L473.394,96H427.5C413.991,96,403,85.009,403,71.5V25.606z M27,191.5   v-80c0-9.098,7.402-16.5,16.5-16.5h304c9.098,0,16.5,7.402,16.5,16.5v80c0,9.098-7.402,16.5-16.5,16.5H139.519   c-0.007,0-0.013-0.001-0.019-0.001S139.487,208,139.481,208H43.5C34.402,208,27,200.598,27,191.5z M459.5,496h-288   c-13.509,0-24.5-10.991-24.5-24.5V223h200.5c17.369,0,31.5-14.131,31.5-31.5v-80c0-17.369-14.131-31.5-31.5-31.5H147V39.5   c0-13.509,10.991-24.5,24.5-24.5H388v56.5c0,21.78,17.72,39.5,39.5,39.5H484v360.5C484,485.009,473.009,496,459.5,496z"/><path d="M115.5,112c-4.142,0-7.5,3.358-7.5,7.5V152H67v-32.5c0-4.142-3.358-7.5-7.5-7.5s-7.5,3.358-7.5,7.5v64   c0,4.142,3.358,7.5,7.5,7.5s7.5-3.358,7.5-7.5V167h41v16.5c0,4.142,3.358,7.5,7.5,7.5s7.5-3.358,7.5-7.5v-64   C123,115.358,119.642,112,115.5,112z"/><path d="M211.5,191c4.142,0,7.5-3.358,7.5-7.5v-36.923l10.069,16.782c1.355,2.259,3.797,3.641,6.431,3.641h8   c2.634,0,5.076-1.382,6.431-3.641L260,146.577V183.5c0,4.142,3.358,7.5,7.5,7.5s7.5-3.358,7.5-7.5v-64   c0-3.371-2.249-6.328-5.498-7.228c-3.249-0.9-6.698,0.478-8.433,3.369L239.5,151.589l-21.569-35.948   c-1.734-2.891-5.186-4.267-8.433-3.369c-3.249,0.9-5.498,3.857-5.498,7.228v64C204,187.642,207.358,191,211.5,191z"/><path d="M139.5,127H156v56.5c0,4.142,3.358,7.5,7.5,7.5s7.5-3.358,7.5-7.5V127h16.5c4.142,0,7.5-3.358,7.5-7.5s-3.358-7.5-7.5-7.5   h-48c-4.142,0-7.5,3.358-7.5,7.5S135.358,127,139.5,127z"/><path d="M299.5,191h40c4.142,0,7.5-3.358,7.5-7.5s-3.358-7.5-7.5-7.5H307v-56.5c0-4.142-3.358-7.5-7.5-7.5s-7.5,3.358-7.5,7.5v64   C292,187.642,295.358,191,299.5,191z"/><path d="M341.872,280.385c-3.929-1.309-8.177,0.814-9.487,4.744l-48,144c-1.31,3.929,0.814,8.177,4.744,9.487   c0.787,0.262,1.586,0.387,2.373,0.387c3.14,0,6.066-1.988,7.114-5.13l48-144C347.925,285.942,345.801,281.695,341.872,280.385z"/><path d="M272.803,298.197c-2.929-2.929-7.678-2.929-10.606,0l-56,56c-2.929,2.929-2.929,7.678,0,10.606l56,56   c1.464,1.464,3.384,2.197,5.303,2.197s3.839-0.732,5.303-2.197c2.929-2.929,2.929-7.678,0-10.606L222.106,359.5l50.697-50.697   C275.732,305.875,275.732,301.125,272.803,298.197z"/><path d="M368.803,298.197c-2.929-2.929-7.678-2.929-10.606,0c-2.929,2.929-2.929,7.678,0,10.606l50.697,50.697l-50.697,50.697   c-2.929,2.929-2.929,7.678,0,10.606c1.464,1.464,3.384,2.197,5.303,2.197s3.839-0.732,5.303-2.197l56-56   c2.929-2.929,2.929-7.678,0-10.606L368.803,298.197z"/></g><g transform="matrix(0.11741682887077332 0 0 0.11741682887077332 116 1)" id="L1_13"><path d="M470.962,102.751c-0.018-0.182-0.049-0.359-0.08-0.537c-0.011-0.063-0.017-0.128-0.029-0.191   c-0.042-0.21-0.096-0.416-0.155-0.619c-0.009-0.03-0.014-0.061-0.023-0.091c-0.063-0.207-0.138-0.409-0.218-0.608   c-0.011-0.027-0.019-0.055-0.03-0.081c-0.078-0.189-0.168-0.372-0.261-0.552c-0.019-0.037-0.034-0.075-0.054-0.112   c-0.089-0.167-0.189-0.327-0.291-0.486c-0.03-0.048-0.057-0.098-0.088-0.145c-0.101-0.151-0.213-0.295-0.324-0.438   c-0.039-0.05-0.073-0.102-0.113-0.151c-0.156-0.189-0.32-0.372-0.493-0.545L372.805,2.198c-0.173-0.173-0.355-0.338-0.545-0.493   c-0.049-0.04-0.102-0.074-0.151-0.113c-0.143-0.112-0.287-0.223-0.438-0.324c-0.047-0.032-0.097-0.058-0.145-0.088   c-0.159-0.101-0.319-0.201-0.486-0.291c-0.036-0.02-0.075-0.035-0.112-0.054c-0.181-0.093-0.364-0.183-0.552-0.261   c-0.027-0.011-0.055-0.019-0.081-0.03c-0.199-0.08-0.401-0.155-0.608-0.218c-0.03-0.009-0.061-0.015-0.091-0.023   c-0.203-0.059-0.409-0.114-0.619-0.156c-0.063-0.013-0.128-0.018-0.191-0.029c-0.178-0.031-0.355-0.062-0.537-0.08   C368.001,0.013,367.751,0,367.5,0h-224C121.72,0,104,17.72,104,39.5V80H71.5C54.131,80,40,94.131,40,111.5v80   c0,17.369,14.131,31.5,31.5,31.5H104v248.5c0,21.78,17.72,39.5,39.5,39.5h288c21.78,0,39.5-17.72,39.5-39.5v-368   C471,103.249,470.987,102.999,470.962,102.751z M375,25.606L445.394,96H399.5C385.991,96,375,85.009,375,71.5V25.606z M55,191.5   v-80c0-9.098,7.402-16.5,16.5-16.5h232c9.098,0,16.5,7.402,16.5,16.5v80c0,9.098-7.402,16.5-16.5,16.5H111.519   c-0.006,0-0.013-0.001-0.019-0.001S111.487,208,111.481,208H71.5C62.402,208,55,200.598,55,191.5z M431.5,496h-288   c-13.509,0-24.5-10.991-24.5-24.5V223h184.5c17.369,0,31.5-14.131,31.5-31.5v-80c0-17.369-14.131-31.5-31.5-31.5H119V39.5   c0-13.509,10.991-24.5,24.5-24.5H360v56.5c0,21.78,17.72,39.5,39.5,39.5H456v360.5C456,485.009,445.009,496,431.5,496z"/><path d="M223,319.5c0-4.687,3.813-8.5,8.5-8.5h8c4.142,0,7.5-3.358,7.5-7.5s-3.358-7.5-7.5-7.5h-8c-12.958,0-23.5,10.542-23.5,23.5   v24c0,4.687-3.813,8.5-8.5,8.5c-4.142,0-7.5,3.358-7.5,7.5s3.358,7.5,7.5,7.5c4.687,0,8.5,3.813,8.5,8.5v24   c0,12.958,10.542,23.5,23.5,23.5h8c4.142,0,7.5-3.358,7.5-7.5s-3.358-7.5-7.5-7.5h-8c-4.687,0-8.5-3.813-8.5-8.5v-24   c0-6.175-2.394-11.802-6.303-16c3.909-4.198,6.303-9.825,6.303-16V319.5z"/><path d="M375.5,352c-4.687,0-8.5-3.813-8.5-8.5v-24c0-12.958-10.542-23.5-23.5-23.5h-8c-4.142,0-7.5,3.358-7.5,7.5   s3.358,7.5,7.5,7.5h8c4.687,0,8.5,3.813,8.5,8.5v24c0,6.175,2.394,11.802,6.303,16c-3.909,4.198-6.303,9.825-6.303,16v24   c0,4.687-3.813,8.5-8.5,8.5h-8c-4.142,0-7.5,3.358-7.5,7.5s3.358,7.5,7.5,7.5h8c12.958,0,23.5-10.542,23.5-23.5v-24   c0-4.687,3.813-8.5,8.5-8.5c4.142,0,7.5-3.358,7.5-7.5S379.642,352,375.5,352z"/><path d="M255.503,384c-1.98,0-3.91,0.8-5.31,2.2c-1.39,1.39-2.19,3.33-2.19,5.3c0,1.98,0.8,3.91,2.19,5.3   c1.4,1.4,3.33,2.2,5.31,2.2c1.97,0,3.9-0.8,5.3-2.2c1.4-1.39,2.2-3.32,2.2-5.3c0-1.97-0.8-3.91-2.2-5.3   C259.403,384.8,257.473,384,255.503,384z"/><path d="M287.503,384c-1.98,0-3.91,0.8-5.31,2.2c-1.39,1.39-2.19,3.33-2.19,5.3c0,1.97,0.8,3.91,2.19,5.3   c1.4,1.4,3.33,2.2,5.31,2.2c1.97,0,3.9-0.8,5.3-2.2c1.4-1.39,2.2-3.32,2.2-5.3s-0.8-3.91-2.2-5.3   C291.403,384.8,289.473,384,287.503,384z"/><path d="M319.503,384c-1.98,0-3.91,0.8-5.31,2.2c-1.39,1.39-2.19,3.33-2.19,5.3c0,1.98,0.8,3.91,2.19,5.3   c1.4,1.4,3.33,2.2,5.31,2.2c1.97,0,3.9-0.8,5.3-2.2c1.4-1.39,2.2-3.32,2.2-5.3c0-1.97-0.8-3.91-2.2-5.3   C323.403,384.8,321.473,384,319.503,384z"/><path d="M199.5,176h-40c-4.142,0-7.5,3.358-7.5,7.5s3.358,7.5,7.5,7.5h40c12.958,0,23.5-10.542,23.5-23.5S212.458,144,199.5,144   h-24c-4.687,0-8.5-3.813-8.5-8.5s3.813-8.5,8.5-8.5h32c4.142,0,7.5-3.358,7.5-7.5s-3.358-7.5-7.5-7.5h-32   c-12.958,0-23.5,10.542-23.5,23.5s10.542,23.5,23.5,23.5h24c4.687,0,8.5,3.813,8.5,8.5S204.187,176,199.5,176z"/><path d="M279.5,176h-40c-4.142,0-7.5,3.358-7.5,7.5s3.358,7.5,7.5,7.5h40c12.958,0,23.5-10.542,23.5-23.5S292.458,144,279.5,144   h-24c-4.687,0-8.5-3.813-8.5-8.5s3.813-8.5,8.5-8.5h32c4.142,0,7.5-3.358,7.5-7.5s-3.358-7.5-7.5-7.5h-32   c-12.958,0-23.5,10.542-23.5,23.5s10.542,23.5,23.5,23.5h24c4.687,0,8.5,3.813,8.5,8.5S284.187,176,279.5,176z"/><path d="M111.5,191c8.835,0,17.344-3.82,23.344-10.48c2.772-3.078,2.525-7.82-0.552-10.592c-3.078-2.771-7.819-2.525-10.592,0.552   c-3.207,3.56-7.539,5.52-12.199,5.52h-8c-9.098,0-16.5-7.402-16.5-16.5v-16c0-9.098,7.402-16.5,16.5-16.5h8   c4.66,0,8.993,1.96,12.199,5.52c2.772,3.078,7.514,3.325,10.592,0.552c3.078-2.772,3.325-7.515,0.552-10.592   c-6-6.66-14.508-10.48-23.344-10.48h-8C86.131,112,72,126.131,72,143.5v16c0,17.369,14.131,31.5,31.5,31.5H111.5z"/></g><g transform="matrix(0.11741682887077332 0 0 0.11741682887077332 37 101)" id="L1_14"><path d="M359.5,0h-208C129.72,0,112,17.72,112,39.5v432c0,21.78,17.72,39.5,39.5,39.5h208c21.78,0,39.5-17.72,39.5-39.5v-432   C399,17.72,381.28,0,359.5,0z M127,79h257v49H127V79z M127,143h257v289H127V143z M151.5,15h208c13.509,0,24.5,10.991,24.5,24.5V64   H127V39.5C127,25.991,137.991,15,151.5,15z M359.5,496h-208c-13.509,0-24.5-10.991-24.5-24.5V447h257v24.5   C384,485.009,373.009,496,359.5,496z"/><path d="M231.5,47h48c4.142,0,7.5-3.358,7.5-7.5s-3.358-7.5-7.5-7.5h-48c-4.142,0-7.5,3.358-7.5,7.5S227.358,47,231.5,47z"/><path d="M271.5,464h-32c-4.142,0-7.5,3.358-7.5,7.5s3.358,7.5,7.5,7.5h32c4.142,0,7.5-3.358,7.5-7.5S275.642,464,271.5,464z"/><path d="M199.5,47c1.97,0,3.91-0.8,5.3-2.2c1.4-1.39,2.2-3.33,2.2-5.3c0-1.97-0.8-3.91-2.2-5.3c-1.39-1.4-3.33-2.2-5.3-2.2   c-1.97,0-3.91,0.8-5.3,2.2c-1.4,1.39-2.2,3.33-2.2,5.3c0,1.97,0.8,3.91,2.2,5.3C195.59,46.2,197.53,47,199.5,47z"/><path d="M170.197,308.803c1.464,1.464,3.384,2.197,5.303,2.197s3.839-0.732,5.303-2.197l56-56c2.929-2.929,2.929-7.678,0-10.606   l-56-56c-2.929-2.929-7.678-2.929-10.606,0c-2.929,2.929-2.929,7.678,0,10.606l50.697,50.697l-50.697,50.697   C167.268,301.125,167.268,305.875,170.197,308.803z"/><path d="M247.5,311h80c4.142,0,7.5-3.358,7.5-7.5s-3.358-7.5-7.5-7.5h-80c-4.142,0-7.5,3.358-7.5,7.5S243.358,311,247.5,311z"/><path d="M191.5,352h-32c-8.547,0-15.5,6.953-15.5,15.5v32c0,8.547,6.953,15.5,15.5,15.5h32c8.547,0,15.5-6.953,15.5-15.5v-32   C207,358.953,200.047,352,191.5,352z M192,399.5c0,0.276-0.224,0.5-0.5,0.5h-32c-0.276,0-0.5-0.224-0.5-0.5v-32   c0-0.276,0.224-0.5,0.5-0.5h32c0.276,0,0.5,0.224,0.5,0.5V399.5z"/><path d="M271.5,352h-32c-8.547,0-15.5,6.953-15.5,15.5v32c0,8.547,6.953,15.5,15.5,15.5h32c8.547,0,15.5-6.953,15.5-15.5v-32   C287,358.953,280.047,352,271.5,352z M272,399.5c0,0.276-0.224,0.5-0.5,0.5h-32c-0.276,0-0.5-0.224-0.5-0.5v-32   c0-0.276,0.224-0.5,0.5-0.5h32c0.276,0,0.5,0.224,0.5,0.5V399.5z"/><path d="M351.5,352h-32c-8.547,0-15.5,6.953-15.5,15.5v32c0,8.547,6.953,15.5,15.5,15.5h32c8.547,0,15.5-6.953,15.5-15.5v-32   C367,358.953,360.047,352,351.5,352z M352,399.5c0,0.276-0.224,0.5-0.5,0.5h-32c-0.276,0-0.5-0.224-0.5-0.5v-32   c0-0.276,0.224-0.5,0.5-0.5h32c0.276,0,0.5,0.224,0.5,0.5V399.5z"/><path d="M159.5,96h-8c-4.142,0-7.5,3.358-7.5,7.5s3.358,7.5,7.5,7.5h8c4.142,0,7.5-3.358,7.5-7.5S163.642,96,159.5,96z"/><path d="M359.5,96h-8c-4.142,0-7.5,3.358-7.5,7.5s3.358,7.5,7.5,7.5h8c4.142,0,7.5-3.358,7.5-7.5S363.642,96,359.5,96z"/><path d="M318.5,96h-127c-4.142,0-7.5,3.358-7.5,7.5s3.358,7.5,7.5,7.5h127c4.142,0,7.5-3.358,7.5-7.5S322.642,96,318.5,96z"/></g><g transform="matrix(0.11718743294477463 0 0 0.11718743294477463 124 207)" id="L1_17"><path d="m402.238281 333.300781c-5.328125-1.429687-10.800781 1.726563-12.230469 7.0625-1.429687 5.324219 1.730469 10.808594 7.0625 12.238281 5.328126 1.429688 10.8125-1.738281 12.242188-7.0625 1.425781-5.335937-1.738281-10.808593-7.074219-12.238281zm0 0"/><path d="m114.925781 352.601562c5.335938-1.429687 8.492188-6.914062 7.0625-12.238281-1.429687-5.335937-6.902343-8.492187-12.226562-7.0625-5.335938 1.425781-8.503907 6.902344-7.074219 12.238281 1.425781 5.324219 6.914062 8.492188 12.238281 7.0625zm0 0"/><path d="m500.554688 320.765625c7.53125-24.785156 11.214843-48.089844 11.214843-70.988281 0-66.429688-27.085937-129.195313-76.273437-176.738282-47.9375-46.335937-112.214844-73.039062-179.496094-73.039062-137.828125 0-255.769531 111.523438-255.769531 249.777344 0 22.902344 3.683593 46.210937 11.21875 71.003906-9.148438 7.222656-13.59375 19.480469-10.441407 31.3125l25.867188 96.496094c4.25 15.914062 20.605469 25.507812 36.707031 21.207031l30.613281-8.207031c7.015626 10.195312 19.914063 15.347656 32.460938 11.996094l38.605469-10.351563c15.960937-4.277344 25.46875-20.746094 21.191406-36.703125l-36.199219-135.109375c-4.28125-15.964844-20.757812-25.472656-36.714844-21.191406l-38.59375 10.339843c-4.066406 1.089844-7.710937 2.972657-10.816406 5.433594-1.992187-9.300781-3.234375-18.527344-3.714844-27.632812 11.089844-3.488282 19.371094-13.167969 20.546876-25.207032 8.242187-84.492187 86.765624-153.234374 175.039062-153.234374s166.796875 68.742187 175.039062 153.234374c1.171876 12.039063 9.457032 21.71875 20.546876 25.207032-.480469 9.105468-1.722657 18.332031-3.714844 27.632812-3.109375-2.460937-6.75-4.34375-10.816406-5.433594l-38.59375-10.339843c-15.96875-4.277344-32.4375 5.226562-36.714844 21.191406l-36.199219 135.109375c-4.277344 15.960938 5.230469 32.425781 21.191406 36.703125l38.613281 10.351563c12.496094 3.339843 25.410157-1.761719 32.453126-11.996094l30.621093 8.210937c16.15625 4.3125 32.46875-5.371093 36.695313-21.203125l25.871094-96.515625c3.15625-11.835937-1.308594-24.109375-10.4375-31.316406zm-420.441407-20.894531 38.597657-10.34375c5.324218-1.429688 10.8125 1.742187 12.242187 7.0625l36.195313 135.109375c1.425781 5.320312-1.742188 10.804687-7.0625 12.234375l-9.652344 2.585937-18.09375-67.558593c-1.425782-5.328126-6.902344-8.492188-12.234375-7.066407-5.332031 1.429688-8.496094 6.90625-7.066407 12.238281l18.097657 67.5625-9.648438 2.585938c-5.316406 1.421875-10.808593-1.75-12.238281-7.070312 0-.003907 0-.007813 0-.007813l-36.207031-135.101563c-1.425781-5.316406 1.746093-10.804687 7.070312-12.230468zm7.25 142.859375-28.945312 7.761719c-5.324219 1.421874-10.808594-1.714844-12.242188-7.070313l-25.863281-96.492187c-1.34375-5.046876 1.445312-10.324219 6.433594-12.046876.230468-.082031.472656-.152343.636718-.195312l28.539063-7.652344c2.914063 7.273438-2.40625-9.398437 31.441406 115.695313zm-66.886719-182.964844h20c.871094 15.921875 3.8125 32.121094 8.78125 48.367187l-19.203124 5.152344c-5.539063-18.636718-8.695313-36.292968-9.578126-53.519531zm430.449219-28.546875c-9.445312-96.796875-97.304687-171.273438-194.925781-171.273438-97.675781 0-185.488281 74.519532-194.929688 171.277344-.46875 4.800782-4.769531 8.5625-9.800781 8.5625h-30.8125c5.585938-120.144531 111.164063-219.804687 235.542969-219.804687 124.375 0 229.957031 99.660156 235.539062 219.804687h-30.816406c-5.023437 0-9.328125-3.761718-9.796875-8.566406zm40.59375 28.546875c-.882812 17.226563-4.039062 34.882813-9.574219 53.519531l-19.207031-5.148437c4.96875-16.253907 7.910157-32.449219 8.78125-48.371094zm-88.769531 187.441406s0 0-.003906 0c-1.425782 5.320313-6.917969 8.492188-12.226563 7.074219l-9.65625-2.589844 18.097657-67.558594c1.429687-5.332031-1.734376-10.808593-7.066407-12.238281-5.328125-1.425781-10.808593 1.738281-12.234375 7.066407l-18.097656 67.558593-9.648438-2.589843c-5.320312-1.425782-8.492187-6.914063-7.066406-12.230469l36.199219-135.109375c1.195313-4.457032 5.242187-7.40625 9.65625-7.40625.851563 0 1.722656.113281 2.585937.34375l38.59375 10.339844c5.324219 1.425781 8.5 6.914062 7.074219 12.230468zm88.9375-100.289062-25.867188 96.511719c-1.429687 5.351562-6.925781 8.484374-12.230468 7.066406l-28.953125-7.765625c33.859375-125.140625 28.523437-108.414063 31.4375-115.695313 30.402343 8.15625 28.628906 7.652344 29.253906 7.875 4.910156 1.695313 7.703125 6.976563 6.359375 12.007813zm0 0"/></g></defs><g fi:class="KUsePattern"><pattern id="pattern_L1_10" width="350" height="350" patternUnits="userSpaceOnUse"><use xlink:href="#L1_10" x="-350" y="-350"/><use xlink:href="#L1_10" x="0" y="-350"/><use xlink:href="#L1_10" x="350" y="-350"/><use xlink:href="#L1_10" x="-350" y="0"/><use xlink:href="#L1_10" x="0" y="0"/><use xlink:href="#L1_10" x="350" y="0"/><use xlink:href="#L1_10" x="-350" y="350"/><use xlink:href="#L1_10" x="0" y="350"/><use xlink:href="#L1_10" x="350" y="350"/></pattern><rect x="0" y="0" width="100%" height="100%" fill="url(#pattern_L1_10)"/></g><g fi:class="KUsePattern"><pattern id="pattern_L1_11" width="350" height="350" patternUnits="userSpaceOnUse"><use xlink:href="#L1_11" x="-350" y="-350"/><use xlink:href="#L1_11" x="0" y="-350"/><use xlink:href="#L1_11" x="350" y="-350"/><use xlink:href="#L1_11" x="-350" y="0"/><use xlink:href="#L1_11" x="0" y="0"/><use xlink:href="#L1_11" x="350" y="0"/><use xlink:href="#L1_11" x="-350" y="350"/><use xlink:href="#L1_11" x="0" y="350"/><use xlink:href="#L1_11" x="350" y="350"/></pattern><rect x="0" y="0" width="100%" height="100%" fill="url(#pattern_L1_11)"/></g><g fi:class="KUsePattern"><pattern id="pattern_L1_12" width="350" height="350" patternUnits="userSpaceOnUse"><use xlink:href="#L1_12" x="-350" y="-350"/><use xlink:href="#L1_12" x="0" y="-350"/><use xlink:href="#L1_12" x="350" y="-350"/><use xlink:href="#L1_12" x="-350" y="0"/><use xlink:href="#L1_12" x="0" y="0"/><use xlink:href="#L1_12" x="350" y="0"/><use xlink:href="#L1_12" x="-350" y="350"/><use xlink:href="#L1_12" x="0" y="350"/><use xlink:href="#L1_12" x="350" y="350"/></pattern><rect x="0" y="0" width="100%" height="100%" fill="url(#pattern_L1_12)"/></g><g fi:class="KUsePattern"><pattern id="pattern_L1_13" width="350" height="350" patternUnits="userSpaceOnUse"><use xlink:href="#L1_13" x="-350" y="-350"/><use xlink:href="#L1_13" x="0" y="-350"/><use xlink:href="#L1_13" x="350" y="-350"/><use xlink:href="#L1_13" x="-350" y="0"/><use xlink:href="#L1_13" x="0" y="0"/><use xlink:href="#L1_13" x="350" y="0"/><use xlink:href="#L1_13" x="-350" y="350"/><use xlink:href="#L1_13" x="0" y="350"/><use xlink:href="#L1_13" x="350" y="350"/></pattern><rect x="0" y="0" width="100%" height="100%" fill="url(#pattern_L1_13)"/></g><g fi:class="KUsePattern"><pattern id="pattern_L1_14" width="350" height="350" patternUnits="userSpaceOnUse"><use xlink:href="#L1_14" x="-350" y="-350"/><use xlink:href="#L1_14" x="0" y="-350"/><use xlink:href="#L1_14" x="350" y="-350"/><use xlink:href="#L1_14" x="-350" y="0"/><use xlink:href="#L1_14" x="0" y="0"/><use xlink:href="#L1_14" x="350" y="0"/><use xlink:href="#L1_14" x="-350" y="350"/><use xlink:href="#L1_14" x="0" y="350"/><use xlink:href="#L1_14" x="350" y="350"/></pattern><rect x="0" y="0" width="100%" height="100%" fill="url(#pattern_L1_14)"/></g><g fi:class="KUsePattern"><pattern id="pattern_L1_17" width="350" height="350" patternUnits="userSpaceOnUse"><use xlink:href="#L1_17" x="-350" y="-350"/><use xlink:href="#L1_17" x="0" y="-350"/><use xlink:href="#L1_17" x="350" y="-350"/><use xlink:href="#L1_17" x="-350" y="0"/><use xlink:href="#L1_17" x="0" y="0"/><use xlink:href="#L1_17" x="350" y="0"/><use xlink:href="#L1_17" x="-350" y="350"/><use xlink:href="#L1_17" x="0" y="350"/><use xlink:href="#L1_17" x="350" y="350"/></pattern><rect x="0" y="0" width="100%" height="100%" fill="url(#pattern_L1_17)"/></g></svg>